<svg xmlns="http://www.w3.org/2000/svg" xmlns:xlink="http://www.w3.org/1999/xlink" x="0px" y="0px"
	 viewBox="0 0 3840 2160" style="enable-background:new 0 0 3840 2160;" xml:space="preserve">
<style type="text/css">
	.st0{fill:#B7AFD7;}
</style>
<path class="st0" d="M1994.1-1035l65.5,130c65.5,130,196.5,389.9,283.7,649.8c88.8,259.9,129.8,519.9,43.8,779.8
	s-307,519.9-327.5,779.8c-20.5,259.9,151.5,519.9,131,779.8s-241.5,519.9-262,779.8c-20.5,259.9,151.5,519.9,240.3,649.8l87.2,130
	h-655v-130c0-130,0-389.9,0-649.8s0-519.9,0-779.8s0-519.9,0-779.8s0-519.9,0-779.8s0-519.9,0-779.8s0-519.9,0-649.8v-130H1994.1z"
	/>
<rect class="st0" width="1764.5" height="2160"/>
</svg>
